<svg width="326" height="66" viewBox="0 0 326 66" fill="none" xmlns="http://www.w3.org/2000/svg">
<path d="M95.1664 21.8503C96.3971 21.8503 97.4256 21.6482 98.2565 21.2395C99.0874 20.8307 99.7072 20.2693 100.111 19.5507C100.52 18.8321 100.722 18.0192 100.722 17.1164C100.722 16.2136 100.516 15.5085 100.098 14.8707C99.6847 14.233 99.0514 13.7344 98.2071 13.3706C97.9061 13.2404 97.5648 13.1416 97.21 13.0518C97.3268 12.9934 97.448 12.944 97.5513 12.8811C98.2834 12.4454 98.8089 11.9065 99.1278 11.2687C99.4467 10.6309 99.6039 9.95725 99.6039 9.24762C99.6039 7.97208 99.1682 6.97499 98.3014 6.25638C97.4346 5.53777 96.2309 5.17848 94.6903 5.17848H82.465L83.7315 13.2898L82.465 21.8458H95.1575L95.1664 21.8503ZM94.9913 17.9024C94.6634 18.1898 94.2143 18.3381 93.6349 18.3381H87.904L88.416 15.0055H93.4777C94.129 15.0055 94.6275 15.1627 94.9688 15.4816C95.3102 15.8005 95.4808 16.2047 95.4808 16.6942C95.4808 17.2107 95.3192 17.6149 94.9913 17.9069V17.9024ZM93.9538 9.08144C94.2278 9.34194 94.367 9.6653 94.367 10.0471C94.367 10.5052 94.2098 10.878 93.8999 11.1564C93.59 11.4349 93.2037 11.5786 92.7456 11.5786H88.398L87.9264 8.6907H92.7905C93.2936 8.6907 93.6843 8.82094 93.9583 9.08144H93.9538Z" fill="black"/>
<path d="M119.06 21.8503V17.7137H108.757L109.144 15.3378H118.284V11.6909H109.144L108.757 9.31497H118.953V5.17848H103.26L104.504 13.5144L103.26 21.8503H119.06Z" fill="black"/>
<path d="M127.486 21.8503H132.664V9.78208H138.845V5.17848H121.306V9.78208H127.486V21.8503Z" fill="black"/>
<path d="M156.738 21.8503V17.7137H146.435L146.817 15.3378H155.961V11.6909H146.817L146.435 9.31497H156.626V5.17848H140.933L142.177 13.5144L140.933 21.8503H156.738Z" fill="black"/>
<path d="M165.321 17.0041H169.678C171.128 17.0041 172.377 16.7616 173.423 16.272C174.47 15.7825 175.265 15.0953 175.813 14.2061C176.361 13.3168 176.635 12.2793 176.635 11.0936C176.635 9.90786 176.361 8.85239 175.813 7.97209C175.265 7.09179 174.47 6.40461 173.423 5.91506C172.377 5.4255 171.128 5.183 169.678 5.183H160.143V21.8548H165.321V17.0086V17.0041ZM170.863 9.73718C171.227 10.0471 171.407 10.5007 171.407 11.0936C171.407 11.6864 171.227 12.0996 170.863 12.4275C170.5 12.7553 169.992 12.917 169.341 12.917H165.317V9.27009H169.341C169.992 9.27009 170.5 9.42728 170.863 9.73718Z" fill="black"/>
<path d="M181.544 21.8503L182.806 18.8501H190.998L192.256 21.8503H197.789L190.32 5.17848H183.475L176.028 21.8503H181.539H181.544ZM184.548 14.7135L186.915 9.0904L189.273 14.7135H184.553H184.548Z" fill="black"/>
<path d="M205.284 15.6478H213.086V21.8503H218.264V5.17848H213.086V11.0711H205.284V5.17848H200.106V21.8503H205.284V15.6478Z" fill="black"/>
<path d="M239.347 18.6704C240.2 17.5431 240.712 16.2406 240.892 14.7585H235.691C235.543 15.4097 235.273 15.9667 234.878 16.4248C234.487 16.8829 233.98 17.2287 233.355 17.4578C232.731 17.6868 231.999 17.8036 231.155 17.8036C230.207 17.8036 229.389 17.6284 228.711 17.2826C228.029 16.9368 227.503 16.4427 227.135 15.805C226.767 15.1672 226.578 14.4037 226.578 13.5144C226.578 12.6251 226.762 11.8571 227.135 11.2148C227.503 10.5681 228.033 10.0785 228.711 9.73718C229.394 9.39584 230.207 9.22519 231.155 9.22519C231.999 9.22519 232.731 9.34643 233.355 9.59346C233.98 9.83599 234.487 10.1863 234.878 10.6399C235.269 11.0936 235.543 11.637 235.691 12.2748H240.892C240.712 10.7792 240.2 9.47221 239.347 8.35387C238.493 7.23553 237.371 6.36421 235.969 5.73992C234.568 5.11563 232.965 4.80572 231.159 4.80572C229.201 4.80572 227.49 5.16951 226.025 5.89711C224.557 6.6247 223.416 7.63975 222.603 8.94224C221.79 10.2447 221.381 11.7717 221.381 13.5234C221.381 15.275 221.79 16.7975 222.603 18.1045C223.416 19.407 224.561 20.4221 226.025 21.1496C227.494 21.8772 229.205 22.241 231.159 22.241C232.965 22.241 234.572 21.9311 235.969 21.3068C237.371 20.6825 238.498 19.8112 239.347 18.6839V18.6704Z" fill="black"/>
<path d="M259.531 19.0612C260.088 18.1809 260.366 17.1389 260.366 15.9397C260.366 14.7405 260.088 13.7165 259.531 12.8272C258.974 11.9379 258.179 11.2508 257.142 10.7612C256.104 10.2717 254.851 10.0291 253.387 10.0291H249.053V5.18299H243.874V21.8548H253.387C254.856 21.8548 256.104 21.6122 257.142 21.1227C258.179 20.6331 258.974 19.9505 259.531 19.0657V19.0612ZM254.586 17.3051C254.213 17.6374 253.706 17.8036 253.05 17.8036H249.048V14.0713H253.05C253.701 14.0713 254.213 14.233 254.586 14.5608C254.954 14.8887 255.143 15.3468 255.143 15.9397C255.143 16.5325 254.959 16.9727 254.586 17.3051Z" fill="black"/>
<path d="M281.192 5.17848H275.771L268.235 14.9606V5.17848H263.101V21.8503H267.79L272.322 16.2092L275.569 21.8503H281.439L275.587 12.1535L281.192 5.17848Z" fill="black"/>
<path d="M288.707 16.6179V5.17848H283.595V21.8503H290.153L297.707 10.0695V21.8503H302.823V5.17848H296.063L288.707 16.6179Z" fill="black"/>
<path d="M312.322 3.20232C313.395 3.85356 314.68 4.18142 316.18 4.18142C317.68 4.18142 319.005 3.85356 320.07 3.20232C321.138 2.55107 321.848 1.48214 322.203 0H318.156C317.977 0.444641 317.721 0.78149 317.388 1.01055C317.056 1.23961 316.652 1.35639 316.176 1.35639C315.7 1.35639 315.318 1.23961 314.985 1.01055C314.653 0.78149 314.388 0.444641 314.195 0H310.171C310.526 1.48214 311.24 2.55107 312.318 3.20232H312.322Z" fill="black"/>
<path d="M319.068 5.17848L311.711 16.6179V5.17848H306.6V21.8503H313.157L320.716 10.0695V21.8503H325.827V5.17848H319.068Z" fill="black"/>
<path d="M101.014 43.1886V26.5168H82.941V43.1886H88.1195V31.0979H95.8356V43.1886H101.014Z" fill="black"/>
<path d="M114.326 26.5168H104.791V43.1886H109.97V38.3424H114.326C115.777 38.3424 117.026 38.0999 118.072 37.6103C119.118 37.1208 119.913 36.4336 120.461 35.5443C121.009 34.655 121.283 33.6175 121.283 32.4318C121.283 31.2461 121.009 30.1907 120.461 29.3104C119.913 28.4301 119.118 27.7429 118.072 27.2533C117.026 26.7638 115.777 26.5212 114.326 26.5212V26.5168ZM115.516 33.7657C115.153 34.0936 114.645 34.2553 113.994 34.2553H109.97V30.6084H113.994C114.645 30.6084 115.153 30.7655 115.516 31.0754C115.88 31.3853 116.06 31.839 116.06 32.4318C116.06 33.0247 115.88 33.4379 115.516 33.7657Z" fill="black"/>
<path d="M142.123 39.4338C142.959 38.1313 143.381 36.6043 143.381 34.8527C143.381 33.1011 142.963 31.5785 142.123 30.2715C141.288 28.969 140.116 27.954 138.611 27.2264C137.106 26.4988 135.355 26.135 133.356 26.135C131.358 26.135 129.601 26.4988 128.097 27.2264C126.592 27.954 125.42 28.969 124.585 30.2715C123.749 31.574 123.327 33.1011 123.327 34.8527C123.327 36.6043 123.745 38.1268 124.585 39.4338C125.42 40.7363 126.592 41.7513 128.097 42.4789C129.601 43.2065 131.353 43.5703 133.356 43.5703C135.359 43.5703 137.106 43.2065 138.611 42.4789C140.116 41.7513 141.288 40.7363 142.123 39.4338ZM137.578 37.0444C137.192 37.6597 136.639 38.1358 135.921 38.4682C135.202 38.8006 134.344 38.9667 133.352 38.9667C132.359 38.9667 131.501 38.8006 130.783 38.4682C130.064 38.1358 129.512 37.6597 129.125 37.0444C128.739 36.4291 128.546 35.7015 128.546 34.8572C128.546 34.0128 128.739 33.2807 129.125 32.6699C129.512 32.0546 130.064 31.5785 130.783 31.2461C131.501 30.9138 132.359 30.7476 133.352 30.7476C134.344 30.7476 135.198 30.9138 135.921 31.2461C136.639 31.5785 137.192 32.0546 137.578 32.6699C137.964 33.2852 138.157 34.0128 138.157 34.8572C138.157 35.7015 137.964 36.4336 137.578 37.0444Z" fill="black"/>
<path d="M165.316 36.1012H160.115C159.967 36.7525 159.698 37.3094 159.302 37.7675C158.912 38.2256 158.404 38.5715 157.78 38.8005C157.156 39.0296 156.423 39.1464 155.579 39.1464C154.631 39.1464 153.814 38.9712 153.136 38.6254C152.453 38.2795 151.928 37.7855 151.559 37.1477C151.191 36.51 151.002 35.7464 151.002 34.8571C151.002 33.9679 151.187 33.1998 151.559 32.5576C151.928 31.9108 152.458 31.4213 153.136 31.0799C153.819 30.7386 154.631 30.5679 155.579 30.5679C156.423 30.5679 157.156 30.6892 157.78 30.9362C158.404 31.1787 158.912 31.5291 159.302 31.9827C159.693 32.4363 159.967 32.9798 160.115 33.6176H165.316C165.137 32.1219 164.625 30.8149 163.771 29.6921C162.918 28.5738 161.795 27.7025 160.394 27.0782C158.993 26.4539 157.389 26.144 155.584 26.144C153.625 26.144 151.914 26.5078 150.45 27.2354C148.981 27.963 147.841 28.978 147.028 30.2805C146.215 31.583 145.806 33.11 145.806 34.8616C145.806 36.6132 146.215 38.1358 147.028 39.4428C147.841 40.7453 148.986 41.7603 150.45 42.4879C151.919 43.2155 153.63 43.5793 155.584 43.5793C157.389 43.5793 158.997 43.2694 160.394 42.6451C161.795 42.0208 162.922 41.1495 163.771 40.0222C164.625 38.8948 165.137 37.5924 165.316 36.1102V36.1012Z" fill="black"/>
<path d="M179.747 43.0628V30.9946H185.927V26.391H168.389V30.9946H174.569V43.0628H179.747Z" fill="black"/>
<path d="M194.124 26.5168H188.945V43.1886H194.124V26.5168Z" fill="black"/>
<path d="M211.164 27.2533C210.117 26.7638 208.869 26.5213 207.418 26.5213H197.883V43.193H203.062V38.3469H207.418C208.869 38.3469 210.117 38.1044 211.164 37.6148C212.21 37.1253 213.005 36.4381 213.553 35.5488C214.101 34.6595 214.375 33.6221 214.375 32.4363C214.375 31.2506 214.101 30.1952 213.553 29.3149C213.005 28.4346 212.21 27.7474 211.164 27.2578V27.2533ZM208.608 33.7658C208.245 34.0936 207.737 34.2553 207.086 34.2553H203.062V30.6084H207.086C207.737 30.6084 208.245 30.7656 208.608 31.0755C208.972 31.3854 209.152 31.839 209.152 32.4319C209.152 33.0247 208.972 33.4379 208.608 33.7658Z" fill="black"/>
<path d="M92.2874 55.1669H90.3786L87.8051 58.4186L85.2046 55.1669H83.2419L86.7901 59.4696L82.941 64.1541H84.8453L87.7467 60.5161L90.6346 64.1541H92.5839L88.7662 59.4696L92.2874 55.1669Z" fill="black"/>
<path d="M100.049 62.654L96.4196 55.1669H93.9988V64.1541H95.5078V56.6805L99.1997 64.1541H100.888L104.576 56.667V64.1541H106.085V55.1669H103.669L100.049 62.654Z" fill="black"/>
<path d="M110.415 60.3185H115.755V59.0025H110.415L110.024 56.5368H116.042V55.1669H108.268L108.986 59.6627L108.268 64.1541H116.101V62.7887H110.024L110.415 60.3185Z" fill="black"/>
<path d="M119.837 57.4395C119.878 58.1402 119.896 58.76 119.896 59.3034C119.896 60.5565 119.761 61.4638 119.496 62.0207C119.226 62.5821 118.8 62.8606 118.207 62.8606C117.91 62.8606 117.596 62.7932 117.259 62.6585V64.0014C117.452 64.1047 117.668 64.181 117.906 64.2349C118.144 64.2888 118.391 64.3113 118.638 64.3113C119.285 64.3113 119.81 64.1451 120.214 63.8127C120.619 63.4804 120.915 62.9639 121.108 62.2632C121.301 61.5626 121.396 60.6508 121.396 59.5325C121.396 59.0205 121.378 58.4725 121.346 57.8932C121.324 57.48 121.283 57.0263 121.243 56.5772H126.183V64.1586H127.764V55.1759H119.644C119.734 55.9888 119.797 56.7479 119.837 57.444V57.4395Z" fill="black"/>
<path d="M136.729 58.8229C136.235 58.5848 135.647 58.4635 134.969 58.4635H131.843V55.1669H130.262V64.1496H134.969C135.647 64.1496 136.235 64.0283 136.729 63.7903C137.223 63.5522 137.61 63.2154 137.879 62.7887C138.148 62.362 138.288 61.868 138.288 61.3111C138.288 60.7541 138.153 60.2466 137.879 59.8199C137.61 59.3933 137.223 59.0609 136.729 58.8184V58.8229ZM136.204 62.4474C135.885 62.7303 135.449 62.874 134.897 62.874H131.843V59.7481H134.897C135.449 59.7481 135.885 59.8918 136.204 60.1747C136.523 60.4577 136.684 60.8395 136.684 61.32C136.684 61.8006 136.523 62.1689 136.204 62.4518V62.4474Z" fill="black"/>
<path d="M147.378 58.9307H141.652V55.1669H140.071V64.1541H141.652V60.3185H147.378V64.1541H148.959V55.1669H147.378V58.9307Z" fill="black"/>
<path d="M152.988 62.6136V55.1669H151.452V64.1541H153.464L159.24 56.6356V64.1541H160.771V55.1669H158.714L152.988 62.6136Z" fill="black"/>
<path d="M172.008 55.1669H170.441V62.7528H164.845V55.1669H163.264V64.1541H172.116V66H173.589V62.7528H172.008V55.1669Z" fill="black"/>
<path d="M181.844 58.8229C181.35 58.5848 180.762 58.4635 180.084 58.4635H176.958V55.1669H175.377V64.1496H180.084C180.762 64.1496 181.35 64.0283 181.844 63.7903C182.338 63.5522 182.725 63.2154 182.994 62.7887C183.264 62.362 183.403 61.868 183.403 61.3111C183.403 60.7541 183.268 60.2466 182.994 59.8199C182.725 59.3933 182.338 59.0609 181.844 58.8184V58.8229ZM181.319 62.4474C181 62.7303 180.564 62.874 180.012 62.874H176.958V59.7481H180.012C180.564 59.7481 181 59.8918 181.319 60.1747C181.638 60.4577 181.799 60.8395 181.799 61.32C181.799 61.8006 181.638 62.1689 181.319 62.4518V62.4474Z" fill="black"/>
<path d="M194.016 55.1669H192.305L186.767 61.9399V55.1669H185.186V64.1541H186.601L189.839 60.2287L192.341 64.1541H194.146L190.863 58.9935L194.016 55.1669Z" fill="black"/>
<path d="M202.46 55.5891C201.687 55.1984 200.789 55.0008 199.765 55.0008C198.741 55.0008 197.843 55.1984 197.07 55.5891C196.298 55.9799 195.691 56.5278 195.26 57.224C194.829 57.9246 194.613 58.7375 194.613 59.6628C194.613 60.588 194.829 61.4009 195.26 62.1015C195.691 62.8022 196.293 63.3456 197.07 63.7364C197.843 64.1271 198.741 64.3248 199.765 64.3248C200.789 64.3248 201.687 64.1271 202.46 63.7364C203.237 63.3456 203.838 62.8022 204.27 62.1015C204.701 61.4009 204.916 60.588 204.916 59.6628C204.916 58.7375 204.701 57.9246 204.27 57.224C203.838 56.5233 203.237 55.9799 202.46 55.5891ZM202.877 61.3874C202.585 61.877 202.177 62.2498 201.651 62.5147C201.126 62.7797 200.497 62.91 199.769 62.91C199.042 62.91 198.426 62.7797 197.896 62.5147C197.366 62.2498 196.953 61.877 196.661 61.3874C196.369 60.9023 196.226 60.3275 196.226 59.6628C196.226 58.998 196.369 58.4231 196.661 57.9381C196.953 57.453 197.362 57.0757 197.896 56.8108C198.426 56.5458 199.051 56.4155 199.769 56.4155C200.488 56.4155 201.121 56.5458 201.651 56.8108C202.177 57.0757 202.585 57.4485 202.877 57.9381C203.169 58.4231 203.313 59.0025 203.313 59.6628C203.313 60.323 203.169 60.9023 202.877 61.3874Z" fill="black"/>
<path d="M207.409 53.4063C207.409 53.1503 207.333 52.9437 207.175 52.791C207.018 52.6338 206.816 52.5574 206.56 52.5574C206.304 52.5574 206.097 52.6338 205.945 52.791C205.788 52.9482 205.711 53.1503 205.711 53.4063C205.711 53.6623 205.788 53.8779 205.945 54.0351C206.102 54.1923 206.304 54.2686 206.56 54.2686C206.816 54.2686 207.023 54.1923 207.175 54.0351C207.333 53.8779 207.409 53.6713 207.409 53.4063Z" fill="black"/>
<path d="M208.882 52.5574C208.635 52.5574 208.433 52.6338 208.276 52.791C208.119 52.9482 208.042 53.1503 208.042 53.4063C208.042 53.6623 208.119 53.8779 208.276 54.0351C208.433 54.1923 208.635 54.2686 208.882 54.2686C209.129 54.2686 209.345 54.1923 209.497 54.0351C209.655 53.8779 209.731 53.6713 209.731 53.4063C209.731 53.1413 209.655 52.9437 209.497 52.791C209.34 52.6338 209.138 52.5574 208.882 52.5574Z" fill="black"/>
<path d="M208.51 55.1669H206.929V64.1496H208.51V55.1669Z" fill="black"/>
<path d="M220.708 62.654L217.079 55.1669H214.658V64.1541H216.167V56.6805L219.855 64.1541H221.543L225.235 56.667V64.1541H226.744V55.1669H224.323L220.708 62.654Z" fill="black"/>
<path d="M230.818 55.1669H229.237V64.1496H230.818V55.1669Z" fill="black"/>
<path d="M236.059 56.8108C236.576 56.5458 237.182 56.4155 237.887 56.4155C238.493 56.4155 239.028 56.5098 239.49 56.6985C239.953 56.8871 240.33 57.1521 240.622 57.4934C240.914 57.8348 241.103 58.248 241.193 58.7286H242.787C242.706 57.9875 242.45 57.3363 242.015 56.7748C241.579 56.2134 241.009 55.7822 240.308 55.4679C239.607 55.1579 238.803 55.0008 237.901 55.0008C236.894 55.0008 236.01 55.1984 235.251 55.5891C234.492 55.9799 233.903 56.5278 233.477 57.224C233.054 57.9246 232.843 58.7375 232.843 59.6628C232.843 60.588 233.054 61.4009 233.477 62.1015C233.899 62.8022 234.492 63.3456 235.251 63.7364C236.01 64.1271 236.89 64.3248 237.901 64.3248C238.803 64.3248 239.607 64.1675 240.308 63.8576C241.009 63.5477 241.579 63.1076 242.015 62.5462C242.45 61.9848 242.706 61.3335 242.787 60.6014H241.193C241.103 61.082 240.914 61.4952 240.622 61.841C240.33 62.1869 239.953 62.4519 239.49 62.636C239.028 62.8202 238.493 62.91 237.887 62.91C237.186 62.91 236.576 62.7797 236.059 62.5147C235.543 62.2498 235.147 61.877 234.869 61.3874C234.59 60.9023 234.451 60.3275 234.451 59.6628C234.451 58.998 234.59 58.4231 234.869 57.9381C235.147 57.453 235.547 57.0757 236.059 56.8108Z" fill="black"/>
<path d="M251.181 58.8229C250.687 58.5848 250.099 58.4635 249.421 58.4635H246.295V55.1669H244.714V64.1496H249.421C250.099 64.1496 250.687 64.0283 251.181 63.7903C251.675 63.5522 252.062 63.2154 252.331 62.7887C252.601 62.362 252.74 61.868 252.74 61.3111C252.74 60.7541 252.605 60.2466 252.331 59.8199C252.062 59.3933 251.675 59.0609 251.181 58.8184V58.8229ZM250.656 62.4474C250.337 62.7303 249.901 62.874 249.349 62.874H246.295V59.7481H249.349C249.901 59.7481 250.337 59.8918 250.656 60.1747C250.975 60.4577 251.136 60.8395 251.136 61.32C251.136 61.8006 250.975 62.1689 250.656 62.4518V62.4474Z" fill="black"/>
<path d="M263.353 55.1669H261.642L256.104 61.9399V55.1669H254.523V64.1541H255.938L259.176 60.2287L261.678 64.1541H263.483L260.2 58.9935L263.353 55.1669Z" fill="black"/>
<path d="M271.801 55.5891C271.024 55.1984 270.13 55.0008 269.106 55.0008C268.082 55.0008 267.184 55.1984 266.411 55.5891C265.634 55.9799 265.033 56.5278 264.601 57.224C264.17 57.9246 263.955 58.7375 263.955 59.6628C263.955 60.588 264.17 61.4009 264.601 62.1015C265.033 62.8022 265.634 63.3456 266.411 63.7364C267.184 64.1271 268.082 64.3248 269.106 64.3248C270.13 64.3248 271.029 64.1271 271.801 63.7364C272.578 63.3456 273.18 62.8022 273.611 62.1015C274.042 61.4009 274.258 60.588 274.258 59.6628C274.258 58.7375 274.042 57.9246 273.611 57.224C273.18 56.5233 272.578 55.9799 271.801 55.5891ZM272.214 61.3874C271.922 61.877 271.514 62.2498 270.988 62.5147C270.463 62.7797 269.834 62.91 269.106 62.91C268.379 62.91 267.763 62.7797 267.233 62.5147C266.703 62.2498 266.29 61.877 265.998 61.3874C265.706 60.9023 265.563 60.3275 265.563 59.6628C265.563 58.998 265.706 58.4231 265.998 57.9381C266.29 57.453 266.699 57.0757 267.233 56.8108C267.763 56.5458 268.388 56.4155 269.106 56.4155C269.825 56.4155 270.458 56.5458 270.988 56.8108C271.514 57.0757 271.922 57.4485 272.214 57.9381C272.506 58.4231 272.65 59.0025 272.65 59.6628C272.65 60.323 272.506 60.9023 272.214 61.3874Z" fill="black"/>
<path d="M278.219 52.5574C277.972 52.5574 277.77 52.6338 277.612 52.791C277.455 52.9482 277.379 53.1503 277.379 53.4063C277.379 53.6623 277.455 53.8779 277.612 54.0351C277.77 54.1923 277.972 54.2686 278.219 54.2686C278.466 54.2686 278.681 54.1923 278.834 54.0351C278.991 53.8779 279.068 53.6713 279.068 53.4063C279.068 53.1413 278.991 52.9437 278.834 52.791C278.677 52.6338 278.475 52.5574 278.219 52.5574Z" fill="black"/>
<path d="M277.847 55.1669H276.266V64.1496H277.847V55.1669Z" fill="black"/>
<path d="M276.746 53.4063C276.746 53.1503 276.67 52.9437 276.512 52.791C276.355 52.6338 276.153 52.5574 275.897 52.5574C275.641 52.5574 275.434 52.6338 275.282 52.791C275.125 52.9482 275.048 53.1503 275.048 53.4063C275.048 53.6623 275.125 53.8779 275.282 54.0351C275.439 54.1923 275.641 54.2686 275.897 54.2686C276.153 54.2686 276.36 54.1923 276.512 54.0351C276.665 53.8779 276.746 53.6713 276.746 53.4063Z" fill="black"/>
<path d="M291.63 56.5278C291.361 56.1011 290.984 55.7688 290.494 55.5262C290.004 55.2882 289.421 55.1669 288.751 55.1669H283.995V64.1496H285.576V60.844H288.751C289.421 60.844 290.004 60.7227 290.494 60.4846C290.984 60.2466 291.365 59.9098 291.63 59.4831C291.895 59.0564 292.03 58.5624 292.03 58.0055C292.03 57.4485 291.895 56.9545 291.63 56.5278ZM289.964 59.0878C289.659 59.3528 289.232 59.4831 288.688 59.4831H285.576V56.5368H288.688C289.232 56.5368 289.659 56.667 289.964 56.932C290.269 57.197 290.427 57.5563 290.427 58.0099C290.427 58.4636 290.274 58.8229 289.964 59.0878Z" fill="black"/>
<path d="M296.068 55.1669L291.756 64.1496H293.445L294.406 62.088H299.706L300.667 64.1496H302.356L298.044 55.1669H296.068ZM295.017 60.7856L297.056 56.42L299.095 60.7856H295.017Z" fill="black"/>
<path d="M313.139 55.1669H305.064C305.113 55.6924 305.154 56.2224 305.185 56.7479C305.217 57.2734 305.235 57.7809 305.235 58.2704C305.235 59.3977 305.149 60.3319 304.979 61.073C304.808 61.8051 304.547 62.362 304.197 62.7617H303.092V65.9955H304.565V64.1496H313.252V65.9955H314.725V62.7617H313.144V55.1669H313.139ZM306.492 61.1583C306.636 60.4487 306.708 59.5909 306.708 58.5848C306.708 58.2031 306.699 57.7944 306.685 57.3632C306.676 57.0982 306.654 56.8287 306.636 56.5592H311.563V62.7887H305.859C306.137 62.4114 306.348 61.8725 306.492 61.1583Z" fill="black"/>
<path d="M318.039 62.6136V55.1669H316.508V64.1541H318.52L324.291 56.6356V64.1541H325.827V55.1669H323.766L318.039 62.6136Z" fill="black"/>
<path d="M65.1601 5.15157L61.4009 20.1706C60.8305 22.4611 59.2855 24.3879 57.1791 25.4434L53.3345 27.3611C50.5948 28.7355 48.8701 31.5291 48.8701 34.5967V35.0278L58.9621 29.9841L57.4126 36.1956L55.2029 44.9986C54.6325 47.2892 53.0875 49.2069 50.981 50.2669L32.5801 59.4741L14.1701 50.2669C12.0637 49.2114 10.5187 47.2892 9.94829 44.9986L7.74753 36.1956L6.19803 29.9841L16.29 35.0278V34.5967C16.29 31.5336 14.5609 28.7355 11.8257 27.3611L7.98109 25.4434C5.86568 24.3879 4.32515 22.4611 3.75026 20.1706L0 5.15157L21.7245 16.0161V36.5145C21.7245 40.5971 24.0286 44.3294 27.68 46.1529H27.6845C30.7701 47.7024 34.408 47.7024 37.4936 46.1529C41.145 44.3294 43.4536 40.5971 43.4536 36.5145V16.0161L65.1781 5.15157H65.1601Z" fill="#3971E2"/>
</svg>
