<svg width="66" height="55" viewBox="0 0 66 55" fill="none" xmlns="http://www.w3.org/2000/svg">
<path d="M65.1601 0.151573L61.4009 15.1706C60.8305 17.4611 59.2855 19.3879 57.1791 20.4434L53.3345 22.3611C50.5948 23.7355 48.8701 26.5291 48.8701 29.5967V30.0278L58.9621 24.9841L57.4126 31.1956L55.2029 39.9986C54.6325 42.2892 53.0875 44.2069 50.981 45.2669L32.5801 54.4741L14.1701 45.2669C12.0637 44.2114 10.5187 42.2892 9.94829 39.9986L7.74753 31.1956L6.19803 24.9841L16.29 30.0278V29.5967C16.29 26.5336 14.5609 23.7355 11.8257 22.3611L7.98109 20.4434C5.86568 19.3879 4.32515 17.4611 3.75026 15.1706L0 0.151573L21.7245 11.0161V31.5145C21.7245 35.5971 24.0286 39.3294 27.68 41.1529H27.6845C30.7701 42.7024 34.408 42.7024 37.4936 41.1529C41.145 39.3294 43.4536 35.5971 43.4536 31.5145V11.0161L65.1781 0.151573H65.1601Z" fill="#3971E2"/>
</svg>
