<svg width="44" height="44" viewBox="0 0 44 44" fill="none" xmlns="http://www.w3.org/2000/svg">
<g clip-path="url(#clip0_598_10637)">
<path d="M17.2072 3.4657H26.1227L22.6484 16.4361C22.3278 17.6318 22.6657 18.9054 23.5494 19.7805C24.2079 20.439 25.0917 20.7942 26.0014 20.7942C26.296 20.7942 26.5993 20.7596 26.9025 20.6729L39.8729 17.1985V26.1141L26.9025 22.6397C26.6079 22.5617 26.3047 22.5184 26.0014 22.5184C25.0917 22.5184 24.2079 22.8736 23.5494 23.5321C22.6744 24.4072 22.3278 25.6808 22.6484 26.8765L26.1227 39.8469H17.2072L20.6816 26.8765C21.0022 25.6808 20.6642 24.4072 19.7805 23.5321C19.122 22.8736 18.2383 22.5184 17.3285 22.5184C17.0253 22.5184 16.7307 22.5531 16.4274 22.6397L3.45704 26.1141V17.2072L16.4274 20.6816C16.722 20.7596 17.0253 20.8029 17.3285 20.8029C18.2383 20.8029 19.122 20.4476 19.7805 19.7892C20.6556 18.9141 21.0022 17.6404 20.6816 16.4448L17.2072 3.47437M12.6845 0L17.3285 17.3285L0 12.6845V30.6281L17.3285 25.9841L12.6845 43.3126H30.6281L25.9841 25.9841L43.3126 30.6281V12.6845L25.9841 17.3285L30.6368 0H12.6845Z" fill="#3971E2"/>
</g>
<defs>
<clipPath id="clip0_598_10637">
<rect width="43.3213" height="43.3213" fill="white"/>
</clipPath>
</defs>
</svg>
