<svg width="40" height="40" viewBox="0 0 40 40" fill="none" xmlns="http://www.w3.org/2000/svg">
<g clip-path="url(#clip0_598_12988)">
<path d="M0.833333 10.8333C0.833333 8.53167 2.69833 6.66667 5 6.66667C7.30167 6.66667 9.16667 8.53167 9.16667 10.8333C9.16667 13.135 7.30167 15 5 15C2.69833 15 0.833333 13.135 0.833333 10.8333ZM15 34.1667V38.3333C15 39.2533 14.2533 40 13.3333 40C12.4133 40 11.6667 39.2533 11.6667 38.3333V34.1667C11.6667 33.7067 11.2933 33.3333 10.8333 33.3333C10.8333 33.3333 4.94167 33.3333 4.91333 33.3317C2.19667 33.285 0 31.0617 0 28.3333V21.6667C0 18.91 2.24333 16.6667 5 16.6667C7.75667 16.6667 10 18.91 10 21.6667V30H10.8333C13.13 30 15 31.87 15 34.1667ZM6.66667 30V21.6667C6.66667 20.7483 5.91833 20 5 20C4.08167 20 3.33333 20.7483 3.33333 21.6667V28.3333C3.33333 29.2517 4.08167 30 5 30H6.66667ZM35 15C37.3017 15 39.1667 13.135 39.1667 10.8333C39.1667 8.53167 37.3017 6.66667 35 6.66667C32.6983 6.66667 30.8333 8.53167 30.8333 10.8333C30.8333 13.135 32.6983 15 35 15ZM40 21.6667V28.3333C40 31.0617 37.8033 33.285 35.0867 33.3317C35.0583 33.3317 29.1667 33.3333 29.1667 33.3333C28.7067 33.3333 28.3333 33.7067 28.3333 34.1667V38.3333C28.3333 39.2533 27.5867 40 26.6667 40C25.7467 40 25 39.2533 25 38.3333V34.1667C25 31.87 26.87 30 29.1667 30H30V21.6667C30 18.91 32.2433 16.6667 35 16.6667C37.7567 16.6667 40 18.91 40 21.6667ZM36.6667 21.6667C36.6667 20.7483 35.9183 20 35 20C34.0817 20 33.3333 20.7483 33.3333 21.6667V30H35C35.9183 30 36.6667 29.2517 36.6667 28.3333V21.6667ZM26.6667 23.3333C26.6667 22.4133 25.92 21.6667 25 21.6667H15C14.08 21.6667 13.3333 22.4133 13.3333 23.3333C13.3333 24.2533 14.08 25 15 25H25C25.92 25 26.6667 24.2533 26.6667 23.3333ZM11.6667 8.41333V4.92C11.6667 2.20667 13.8733 0 16.5867 0H23.4133C26.1267 0 28.3333 2.20667 28.3333 4.92V8.41333C28.3333 10.9683 26.375 13.075 23.88 13.3117L21.5633 15.23C21.11 15.635 20.5267 15.8383 19.935 15.8383C19.33 15.8383 18.72 15.625 18.2333 15.1917L15.935 13.29C13.5283 12.97 11.6667 10.905 11.6667 8.41333ZM15 8.41333C15 9.28833 15.7117 10 16.5867 10C16.975 10 17.35 10.135 17.65 10.3817L19.9217 12.2617L22.1917 10.3817C22.49 10.1333 22.8667 9.99833 23.255 9.99833H23.415C24.29 9.99833 25.0017 9.28667 25.0017 8.41167V4.91833C25.0017 4.04333 24.29 3.33167 23.415 3.33167H16.5883C15.7133 3.33167 15.0017 4.04333 15.0017 4.91833V8.41167L15 8.41333ZM6.66667 36.6667H1.66667C0.746667 36.6667 0 37.4133 0 38.3333C0 39.2533 0.746667 40 1.66667 40H6.66667C7.58667 40 8.33333 39.2533 8.33333 38.3333C8.33333 37.4133 7.58667 36.6667 6.66667 36.6667ZM38.3333 36.6667H33.3333C32.4133 36.6667 31.6667 37.4133 31.6667 38.3333C31.6667 39.2533 32.4133 40 33.3333 40H38.3333C39.2533 40 40 39.2533 40 38.3333C40 37.4133 39.2533 36.6667 38.3333 36.6667Z" fill="white"/>
</g>
<defs>
<clipPath id="clip0_598_12988">
<rect width="40" height="40" fill="white"/>
</clipPath>
</defs>
</svg>
