<svg width="31" height="30" viewBox="0 0 31 30" fill="none" xmlns="http://www.w3.org/2000/svg">
<g clip-path="url(#clip0_598_10673)">
<path d="M30.1821 15.0893C30.1821 22.622 24.6564 28.866 17.4433 29.9966V19.4777H20.9519L21.6186 15.1271H17.4433V12.3024C17.4433 11.11 18.0275 9.95189 19.8969 9.95189H21.7938V6.24742C21.7938 6.24742 20.0722 5.95189 18.4261 5.95189C14.9863 5.95189 12.7423 8.03436 12.7423 11.8076V15.1237H8.92096V19.4742H12.7423V29.9931C5.52577 28.8625 0 22.622 0 15.0893C0 6.75601 6.75601 0 15.0893 0C23.4227 0 30.1787 6.75601 30.1787 15.0893H30.1821Z" fill="black"/>
</g>
<defs>
<clipPath id="clip0_598_10673">
<rect width="30.1821" height="30" fill="white"/>
</clipPath>
</defs>
</svg>
