<svg width="44" height="44" viewBox="0 0 44 44" fill="none" xmlns="http://www.w3.org/2000/svg">
<g clip-path="url(#clip0_598_10622)">
<path d="M23.4715 36.1169H19.9538V41.7261C19.9538 42.0035 19.3993 42.7664 19.148 42.9485C17.8744 43.8588 16.4361 42.9311 16.2975 41.4573C16.1155 39.5154 16.6354 36.5851 16.2975 34.8252C16.1588 34.1143 14.7032 33.1086 14.5386 31.3141C14.3913 29.6755 14.3653 26.0257 14.5386 24.4132C14.7899 22.0984 17.0426 20.0611 19.33 19.879C20.8809 19.7577 24.2166 19.7143 25.5769 20.2692C27.1191 20.8934 28.566 22.4972 28.8346 24.1791C29.0426 25.5229 29.0339 30.2044 28.852 31.5741C28.6527 33.0826 27.2231 34.2357 27.1105 34.8339C26.7379 36.7931 27.5003 39.9748 27.0498 41.9428C26.7032 43.4513 24.6411 43.7634 23.8007 42.4716C23.7314 42.3676 23.4541 41.7868 23.4541 41.7347V36.1256L23.4715 36.1169ZM19.7892 23.4422C18.8188 23.5896 18.2383 24.1618 18.0996 25.1327C17.9263 26.3291 17.9523 29.138 18.0563 30.3778C18.1343 31.3314 18.5675 32.2937 19.6245 32.4584C20.3004 32.5625 23.5408 32.5451 24.104 32.3631C24.8577 32.1203 25.2563 31.3661 25.3429 30.6292C25.4902 29.3894 25.4729 26.7626 25.3603 25.4968C25.2996 24.812 25.109 24.0577 24.4592 23.6936C23.7401 23.2948 20.6729 23.3035 19.7805 23.4422H19.7892Z" fill="#3971E2"/>
<path d="M20.8718 9.11174C27.9332 8.12342 27.8985 18.9429 20.8718 17.9633C16.0805 17.2957 16.0805 9.77929 20.8718 9.11174Z" fill="#3971E2"/>
<path d="M33.7119 0.0513361C40.1148 -0.737584 40.5393 8.99821 34.3444 9.07624C28.8426 9.14559 28.2014 0.727554 33.7119 0.0513361Z" fill="#3971E2"/>
<path d="M32.3174 36.1159C30.2207 35.8038 30.2293 32.7088 32.3174 32.4574C34.1196 32.2406 36.4676 32.7261 38.2351 32.4314C39.5001 32.2146 39.7427 31.2176 39.682 30.0993C39.4741 25.8773 38.3737 21.2131 37.9318 16.9737C37.256 15.1705 35.5838 14.2602 33.6864 14.4943C32.2221 14.6763 30.9311 16.6009 29.4842 15.2919C27.7687 13.7487 29.8741 12.0582 31.3123 11.4426C35.8611 9.48332 40.7304 12.2662 41.6835 17.0257C42.6365 21.7853 42.7492 26.7182 43.3297 31.313C43.0091 33.489 41.6921 35.0062 39.6907 35.8125C39.5347 37.6764 39.916 39.9218 39.6907 41.7424C39.5174 43.1728 37.7412 43.8144 36.7102 42.826C36.5975 42.7133 36.173 42.0891 36.173 42.0111V36.1246C34.986 36.0032 33.4697 36.2979 32.3174 36.1246V36.1159Z" fill="#3971E2"/>
<path d="M7.25231 42.0027C6.92307 43.6326 4.13318 43.7713 3.76928 41.9681L3.74329 29.7181C2.07975 28.7125 0.728128 27.0913 0.286251 25.1667C-0.155626 23.242 -0.112305 17.2428 0.563507 15.4309C1.23932 13.6189 2.97217 11.9111 4.783 11.2695C6.44654 10.6713 11.9137 10.5326 13.4732 11.3042C14.8942 12.0151 14.8335 14.0177 13.3953 14.6073C12.5028 14.9714 12.1996 14.5552 11.3852 14.4772C10.2848 14.3819 7.46892 14.3472 6.43787 14.5466C5.22488 14.7807 3.96856 16.0637 3.76928 17.2861C3.55267 18.6472 3.60466 22.4445 3.73462 23.8836C3.89058 25.6175 5.3635 26.8919 7.05303 27.0566C8.1274 27.1606 9.583 26.7272 10.4148 27.6114C11.1686 28.409 11.0473 29.6574 10.1548 30.3076C10.0249 30.403 9.4357 30.7151 9.3404 30.7151H7.24365V42.0027H7.25231Z" fill="#3971E2"/>
<path d="M8.4307 0.0515853C14.1058 -0.711327 15.5787 7.54199 10.2502 8.9031C4.1159 10.4723 2.33107 0.875184 8.4307 0.0515853Z" fill="#3971E2"/>
</g>
<defs>
<clipPath id="clip0_598_10622">
<rect width="43.3213" height="43.3213" fill="white"/>
</clipPath>
</defs>
</svg>
