<svg width="59" height="59" viewBox="0 0 59 59" fill="none" xmlns="http://www.w3.org/2000/svg">
<g clip-path="url(#clip0_598_10573)">
<path d="M36.8753 24.583C36.8753 25.9351 35.769 27.0414 34.417 27.0414H29.5003V31.958C29.5003 33.3101 28.394 34.4164 27.042 34.4164C25.6899 34.4164 24.5836 33.3101 24.5836 31.958V27.0414H19.6669C18.3149 27.0414 17.2086 25.9351 17.2086 24.583C17.2086 23.231 18.3149 22.1247 19.6669 22.1247H24.5836V17.208C24.5836 15.856 25.6899 14.7497 27.042 14.7497C28.394 14.7497 29.5003 15.856 29.5003 17.208V22.1247H34.417C35.769 22.1247 36.8753 23.231 36.8753 24.583ZM59.0003 31.958C59.0003 34.3426 57.2795 36.8747 54.0836 36.8747H53.2724L52.7315 40.9555C51.9203 47.0522 46.684 51.6247 40.5382 51.6247H39.3336C39.3336 55.681 36.0149 58.9997 31.9586 58.9997H14.7503C10.694 58.9997 7.37528 55.681 7.37528 51.6247V49.2401C7.37528 47.0276 6.73611 44.9872 5.55612 43.4384C1.42611 38.0547 -0.491385 31.3435 0.123198 24.5339C1.22945 12.1685 10.9644 1.94179 23.2315 0.270119C33.1632 -1.10655 42.6769 2.87595 48.6753 10.8655C51.7974 14.7251 59.0003 28.4672 59.0003 31.958ZM54.0836 31.958C53.7886 29.7455 48.0115 17.8472 44.7911 13.8893C40.4644 8.13679 34.0236 4.91637 27.042 4.91637C26.0094 4.91637 24.9524 4.99012 23.8953 5.13762C13.8653 6.51429 5.92486 14.8726 4.9907 24.9764C4.47445 30.5568 6.07236 36.0389 9.44028 40.4639C11.2594 42.8484 12.2674 45.9705 12.2674 49.2401V51.6247C12.2674 52.9768 13.3736 54.083 14.7257 54.083H31.934C33.2861 54.083 34.3924 52.9768 34.3924 51.6247V49.1664C34.3924 47.8143 35.4986 46.708 36.8507 46.708H40.5136C44.2011 46.708 47.3478 43.9547 47.8149 40.2918L48.6261 34.0968C48.7982 32.8676 49.8307 31.958 51.0599 31.958H54.0099H54.0836Z" fill="white"/>
</g>
<defs>
<clipPath id="clip0_598_10573">
<rect width="59" height="59" fill="white"/>
</clipPath>
</defs>
</svg>
