<svg width="44" height="40" viewBox="0 0 44 40" fill="none" xmlns="http://www.w3.org/2000/svg">
<g clip-path="url(#clip0_598_10633)">
<path d="M18.5765 1.48291L18.3772 1.88804L15.6653 4.26711C11.2119 2.62073 6.61981 4.16367 4.55771 8.49081C2.02775 13.8265 5.29418 19.3432 8.55194 23.5065C12.1909 28.144 16.9736 32.0401 21.401 35.9104C23.4545 36.3845 24.4855 34.4537 23.0386 32.9366C22.0249 31.8764 20.6472 30.8075 19.5815 29.7817C18.8277 29.0491 18.0913 28.2905 17.3635 27.5406L19.7202 24.9374L26.7295 31.4367C28.8436 32.0574 29.944 30.0834 28.4624 28.506L22.0942 22.8514L24.3989 20.1534C24.4855 20.1189 25.2133 20.7137 25.3519 20.8258C27.1887 22.3946 29.0862 24.4547 30.975 25.877C32.8638 27.2992 34.77 25.4805 33.6176 23.791L24.5548 15.8263C24.2602 15.7487 21.8862 18.3088 21.4184 18.6622C16.731 22.1963 10.5534 17.1451 13.3259 11.8267C14.1231 10.2924 19.5469 5.51698 21.1584 4.12919C26.8595 -0.775478 35.1165 -1.93915 40.3931 4.25849C44.6905 9.3097 43.8501 16.0676 40.6617 21.4378C40.3498 21.5067 40.4451 21.3947 40.3584 21.2654C39.7173 20.2827 39.31 18.9294 38.2183 18.2657C40.1765 14.5247 40.4537 10.12 37.6812 6.68927C33.9035 2.02596 27.8732 3.22411 23.7317 6.68927C21.2537 8.76665 19.0184 11.1888 16.6357 13.3696C15.5007 14.9384 17.1382 16.8779 18.8971 16.0245C19.131 15.9125 20.136 14.9729 20.422 14.7143C22.3194 13.0076 24.2342 10.6975 26.175 9.12006C26.3223 8.99938 26.7469 8.63735 26.9028 8.66321L29.2855 11.025L27.1281 13.3007L36.1996 21.2481C39.0761 24.6271 37.222 29.5318 32.8292 30.0921C32.7079 33.04 30.2386 35.3415 27.2667 35.195C26.7815 38.686 23.0559 40.6082 19.8328 39.1515C18.2299 38.4274 13.4992 33.8848 11.9657 32.4366C6.60248 27.351 -0.476218 19.4811 0.0263085 11.6543C0.338222 6.69789 3.86457 1.73289 8.79453 0.439915C12.1389 -0.439306 15.44 0.19856 18.5765 1.48291Z" fill="#3971E2"/>
</g>
<defs>
<clipPath id="clip0_598_10633">
<rect width="43.3213" height="39.608" fill="white"/>
</clipPath>
</defs>
</svg>
