<svg width="30" height="30" viewBox="0 0 30 30" fill="none" xmlns="http://www.w3.org/2000/svg">
<g clip-path="url(#clip0_598_10671)">
<path d="M14.9983 2.70181C19.0049 2.70181 19.4797 2.71547 21.0611 2.79062C22.6973 2.86576 24.3812 3.23807 25.5699 4.43015C26.7722 5.63247 27.1342 7.29933 27.2094 8.93886C27.2811 10.5203 27.2982 10.9951 27.2982 15.0017C27.2982 19.0083 27.2845 19.4831 27.2094 21.0646C27.1342 22.6904 26.7551 24.3914 25.5699 25.5733C24.3846 26.7551 22.7007 27.1377 21.0611 27.2128C19.4797 27.2845 19.0049 27.3016 14.9983 27.3016C10.9917 27.3016 10.5169 27.2879 8.93544 27.2128C7.32324 27.1377 5.59832 26.7483 4.42673 25.5733C3.23124 24.3778 2.86235 22.6938 2.7872 21.0646C2.71547 19.4831 2.69839 19.0083 2.69839 15.0017C2.69839 10.9951 2.71206 10.5203 2.7872 8.93886C2.86235 7.31982 3.2449 5.60856 4.42673 4.43015C5.62564 3.23124 7.29933 2.86576 8.93544 2.79062C10.5169 2.71889 10.9917 2.70181 14.9983 2.70181ZM14.9983 0C10.9234 0 10.4144 0.0170784 8.81248 0.0888079C6.49323 0.194694 4.19105 0.84026 2.51395 2.51736C0.833428 4.2013 0.194694 6.49664 0.0888079 8.81589C0.0170784 10.4144 0 10.9268 0 15.0017C0 19.0766 0.0170784 19.5856 0.0888079 21.1875C0.194694 23.5034 0.843675 25.8124 2.51736 27.4861C4.19788 29.1666 6.50006 29.8087 8.81589 29.9146C10.4144 29.9863 10.9268 30.0034 15.0017 30.0034C19.0766 30.0034 19.5856 29.9863 21.1875 29.9146C23.5034 29.8087 25.809 29.1632 27.4861 27.4861C29.1632 25.809 29.8087 23.5068 29.9146 21.1875C29.9863 19.589 30.0034 19.0766 30.0034 15.0017C30.0034 10.9268 29.9863 10.4179 29.9146 8.81589C29.8087 6.49664 29.1632 4.19447 27.4861 2.51736C25.809 0.84026 23.4999 0.194694 21.1875 0.0888079C19.589 0.0170784 19.0766 0 15.0017 0L14.9983 0Z" fill="black"/>
<path d="M14.9983 7.2959C10.7457 7.2959 7.2959 10.7457 7.2959 14.9983C7.2959 19.2508 10.7457 22.7007 14.9983 22.7007C19.2508 22.7007 22.7007 19.2508 22.7007 14.9983C22.7007 10.7457 19.2508 7.2959 14.9983 7.2959ZM14.9983 19.9988C12.2384 19.9988 9.99771 17.7616 9.99771 14.9983C9.99771 12.235 12.235 9.99771 14.9983 9.99771C17.7616 9.99771 19.9988 12.235 19.9988 14.9983C19.9988 17.7616 17.7616 19.9988 14.9983 19.9988Z" fill="black"/>
<path d="M23.0081 8.79197C24.0022 8.79197 24.8081 7.98605 24.8081 6.9919C24.8081 5.99775 24.0022 5.19183 23.0081 5.19183C22.0139 5.19183 21.208 5.99775 21.208 6.9919C21.208 7.98605 22.0139 8.79197 23.0081 8.79197Z" fill="black"/>
</g>
<defs>
<clipPath id="clip0_598_10671">
<rect width="30" height="30" fill="white"/>
</clipPath>
</defs>
</svg>
