<svg width="59" height="59" viewBox="0 0 59 59" fill="none" xmlns="http://www.w3.org/2000/svg">
<g clip-path="url(#clip0_598_10582)">
<path d="M29.5 54.0833H12.2917C8.22558 54.0833 4.91667 50.7744 4.91667 46.7083V12.2917C4.91667 8.22558 8.22558 4.91667 12.2917 4.91667H23.391C23.7917 4.91667 24.19 4.93633 24.5833 4.97321V17.2083C24.5833 21.2744 27.8922 24.5833 31.9583 24.5833H46.2486C47.8047 24.6251 49.056 23.0125 48.6307 21.5153C47.8662 18.5235 46.3076 15.7899 44.1246 13.6069L35.5573 5.03958C32.3074 1.78967 27.9857 0 23.3886 0H12.2917C5.51404 0 0 5.51404 0 12.2917V46.7083C0 53.486 5.51404 59 12.2917 59H29.5C30.857 59 31.9583 57.8987 31.9583 56.5417C31.9583 55.1847 30.857 54.0833 29.5 54.0833ZM29.5 6.53671C30.4317 7.07262 31.2995 7.73637 32.0812 8.51812L40.6485 17.0854C41.4205 17.8573 42.0817 18.7276 42.6226 19.6667H31.9583C30.6038 19.6667 29.5 18.5629 29.5 17.2083V6.53671ZM58.2797 54.8036L48.5521 45.076L52.451 41.1771C53.4097 42.4456 55.2412 42.9053 56.436 41.686C57.3972 40.7248 57.3972 39.1711 56.436 38.2099L45.3735 27.1474C44.4123 26.1862 42.8586 26.1862 41.8974 27.1474C40.9362 28.1086 40.9362 29.6622 41.8974 30.6235L42.035 30.7611L30.7611 42.035L30.6235 41.8974C29.6622 40.9362 28.1086 40.9362 27.1474 41.8974C26.1862 42.8586 26.1862 44.4123 27.1474 45.3735L38.2099 56.436C38.6893 56.9153 39.3186 57.1562 39.9479 57.1562C42.4874 57.171 43.2298 53.7957 41.1771 52.451L45.076 48.5521L54.8036 58.2797C57.026 60.5684 60.5684 57.0235 58.2797 54.8036ZM34.2372 45.5111L45.5111 34.2372L48.9774 37.7035L37.7035 48.9774L34.2372 45.5111ZM9.83333 19.6667C9.83333 18.3097 10.9347 17.2083 12.2917 17.2083H17.2083C18.5653 17.2083 19.6667 18.3097 19.6667 19.6667C19.6667 21.0237 18.5653 22.125 17.2083 22.125H12.2917C10.9347 22.125 9.83333 21.0237 9.83333 19.6667ZM31.9583 31.9583H12.2917C10.9347 31.9583 9.83333 30.857 9.83333 29.5C9.83333 28.143 10.9347 27.0417 12.2917 27.0417H31.9583C33.3153 27.0417 34.4167 28.143 34.4167 29.5C34.4167 30.857 33.3153 31.9583 31.9583 31.9583ZM19.6667 36.875C21.0237 36.875 22.125 37.9763 22.125 39.3333C22.125 40.6903 21.0237 41.7917 19.6667 41.7917H12.2917C10.9347 41.7917 9.83333 40.6903 9.83333 39.3333C9.83333 37.9763 10.9347 36.875 12.2917 36.875H19.6667Z" fill="white"/>
</g>
<defs>
<clipPath id="clip0_598_10582">
<rect width="59" height="59" fill="white"/>
</clipPath>
</defs>
</svg>
