<svg width="44" height="44" viewBox="0 0 44 44" fill="none" xmlns="http://www.w3.org/2000/svg">
<g clip-path="url(#clip0_598_10641)">
<path d="M39.128 39.1955C38.2789 40.0485 36.5461 39.7438 36.1302 38.5687L36.0782 30.7958C34.7179 30.5521 33.6695 29.3161 34.4753 27.9582C35.0645 26.9572 35.6277 27.2183 36.5114 27.0269C38.2183 26.6613 39.4399 25.5732 39.5786 23.754C39.6999 22.2308 39.7432 18.8796 39.5352 17.426C39.1367 14.5971 36.2948 14.2925 33.9728 14.4753C32.8898 14.5623 32.2399 15.1716 31.2176 14.2838C30.4031 13.5787 30.4724 12.0555 31.3649 11.4462C32.7338 10.5061 36.9966 10.6889 38.5302 11.2721C40.7049 12.099 42.4984 14.0662 43.0356 16.3554C43.3995 17.8873 43.3562 22.6138 43.1916 24.285C43.0269 25.9562 42.0565 27.758 40.8435 28.8286C40.549 29.0898 39.6825 29.5511 39.5872 29.8732L39.5699 38.238C39.5526 38.5252 39.3186 39.0127 39.1194 39.2042L39.128 39.1955Z" fill="#3971E2"/>
<path d="M38.322 1.26215C40.2541 3.20321 39.9769 6.77197 37.6462 8.28652C33.522 10.9587 28.7393 6.18008 31.3733 1.98461C32.8289 -0.330735 36.3899 -0.670202 38.3133 1.26215H38.322Z" fill="#3971E2"/>
<path d="M23.4111 34.2342H19.9108V41.746C19.9108 41.746 19.6768 42.3205 19.6248 42.4076C18.6718 43.9656 16.3844 43.426 16.2718 41.6242L16.2544 33.3899C16.1678 33.1114 15.5266 32.8415 15.2667 32.6239C13.6812 31.2661 12.7627 29.3859 12.6328 27.2882C12.5028 25.1905 12.4335 20.8818 13.1526 19.0017C14.0017 16.7995 16.5057 14.6844 18.897 14.4929C20.3266 14.3797 23.1598 14.3449 24.5635 14.4929C26.8162 14.7279 29.1642 16.6864 30.0393 18.7319C30.9144 20.7774 30.8364 24.999 30.6977 27.2882C30.5678 29.3424 29.6754 31.2225 28.1331 32.563C27.8645 32.798 27.1541 33.1288 27.0761 33.3986L27.0241 42.0072C26.5389 43.5652 24.5635 43.8351 23.7057 42.425C23.6537 42.3379 23.4198 41.7983 23.4198 41.7634V34.2516L23.4111 34.2342ZM19.8848 18.0355C17.84 18.2357 16.4191 19.463 16.2718 21.5782C16.1591 23.1275 16.1591 25.5909 16.2718 27.1402C16.5404 30.857 20.1707 30.9179 23.0819 30.7264C25.2739 30.5871 26.8855 29.4556 27.0588 27.1402C27.1714 25.5909 27.1714 23.1275 27.0588 21.5782C26.7815 17.757 22.8479 17.7483 19.8848 18.0355Z" fill="#3971E2"/>
<path d="M20.6819 3.68185C26.2356 2.7679 28.1504 10.0099 23.6364 12.2034C21.4443 13.2653 18.6544 12.3078 17.5887 10.1056C16.3844 7.60748 17.8746 4.14318 20.6732 3.68185H20.6819Z" fill="#3971E2"/>
<path d="M7.26065 30.7262L7.19134 38.5688C6.41155 40.2313 3.89892 39.9963 3.74296 38.09V29.9689C3.67365 29.5163 2.81589 29.1246 2.46932 28.8199C1.16968 27.671 0.233942 25.7734 0.103979 24.0239C-0.0259852 22.2743 -0.0519779 18.9145 0.121307 17.1301C0.381235 14.5536 2.41733 12.1599 4.78267 11.2634C6.38556 10.6541 10.1458 10.5583 11.6881 11.2982C12.9357 11.8988 13.031 13.805 11.7834 14.5101C10.813 15.0585 10.2758 14.5536 9.34007 14.4753C6.96607 14.2838 4.0982 14.6319 3.76029 17.5392C3.58701 19.0537 3.62167 22.196 3.74296 23.754C3.86426 25.3121 4.85199 26.4698 6.28159 26.8876C7.31264 27.1922 8.19639 26.8528 8.85487 27.9582C9.61733 29.2465 8.66426 30.6217 7.26932 30.7262H7.26065Z" fill="#3971E2"/>
<path d="M11.3851 1.26205C13.3172 3.20311 13.04 6.77187 10.7093 8.28641C6.58511 10.9586 1.80244 6.17997 4.43638 1.9845C5.90064 -0.339543 9.46164 -0.67901 11.3851 1.26205Z" fill="#3971E2"/>
</g>
<defs>
<clipPath id="clip0_598_10641">
<rect width="43.3213" height="43.3213" fill="white"/>
</clipPath>
</defs>
</svg>
