<svg width="24" height="24" viewBox="0 0 24 24" fill="none" xmlns="http://www.w3.org/2000/svg">
<g clip-path="url(#clip0_598_10666)">
<path d="M2.80399 21.1904L3.73702 17.2189C3.05068 16.013 2.53531 14.7388 2.34235 13.3474C1.38734 6.43447 7.77936 0.783537 14.5402 2.58256C20.7661 4.23757 23.7093 11.4532 20.3778 17.0114C17.5762 21.6883 11.448 23.1481 6.80236 20.2603L2.80399 21.1904Z" fill="black"/>
<path d="M1.52168 22.4694L3.80297 21.9739L4.05455 23.0797L1.50458 23.6289C0.715651 23.5777 0.261346 22.9796 0.400568 22.2058C0.539791 21.432 0.798696 20.6728 0.940361 19.9088L2.01506 20.1895L1.52412 22.4694H1.52168Z" fill="black"/>
<path d="M9.38164 22.5574L9.12273 23.6168C9.10319 23.6486 9.05434 23.6363 9.02015 23.6315C8.82963 23.6022 8.53165 23.4996 8.33869 23.4386C7.62304 23.214 6.93914 22.904 6.27234 22.5623L5.07307 22.8186L4.80928 21.7153L6.45064 21.3442C7.35681 21.8935 8.35335 22.2938 9.3792 22.5599L9.38164 22.5574Z" fill="black"/>
<path d="M2.27641 19.1497L1.1724 18.9202L1.43375 17.7168C1.02829 16.8844 0.603296 15.9959 0.395684 15.0878C0.381029 15.0243 0.324851 14.9072 0.385914 14.8632L1.41665 14.6191L1.45084 14.646C1.63159 15.3368 1.86363 16.0203 2.1665 16.6647C2.2471 16.838 2.61103 17.4287 2.62813 17.5435C2.64034 17.6411 2.6037 17.7485 2.58661 17.8462C2.50356 18.2831 2.36922 18.7152 2.27641 19.1521V19.1497Z" fill="black"/>
<path d="M4.89721 2.34093L5.53715 3.25387C4.77265 3.81042 4.09852 4.47437 3.50011 5.20667C3.45126 5.26526 3.29982 5.50692 3.26807 5.52645C3.24364 5.54109 3.23387 5.54353 3.20945 5.52645L2.33503 4.89911C2.31794 4.8747 2.58661 4.52807 2.62569 4.47925C3.1264 3.84215 3.83717 3.13182 4.47466 2.63141C4.52351 2.59235 4.87279 2.32384 4.89477 2.34093H4.89721Z" fill="black"/>
<path d="M21.665 4.8991L20.7515 5.53865C20.1067 4.67697 19.3544 3.88364 18.4653 3.26851L19.1052 2.33848C19.1297 2.32139 19.4765 2.59235 19.5253 2.62896C20.1628 3.12937 20.8736 3.8397 21.3743 4.47681C21.4134 4.52563 21.6821 4.87469 21.665 4.89666V4.8991Z" fill="black"/>
<path d="M22.3049 18.1928L21.3157 17.624C21.8775 16.6916 22.2829 15.6761 22.5662 14.6265L23.6336 14.8754L23.6458 14.9462C23.3601 16.0911 22.8838 17.17 22.3073 18.1928H22.3049Z" fill="black"/>
<path d="M18.1991 1.70385L17.6324 2.69002C16.7116 2.14323 15.715 1.71606 14.6697 1.46219L14.6208 1.39873L14.8797 0.375943C14.9286 0.339328 15.3829 0.480907 15.4781 0.507758C16.4331 0.788474 17.3369 1.21565 18.1966 1.70385H18.1991Z" fill="black"/>
<path d="M2.68675 6.35642C2.13474 7.30109 1.71708 8.31166 1.43619 9.36862L0.361488 9.11476C0.605738 7.93819 1.11866 6.84218 1.69754 5.80231L2.68675 6.35642Z" fill="black"/>
<path d="M21.665 19.096C21.6845 19.1228 21.3865 19.4914 21.345 19.5451C20.7173 20.3287 19.9723 21.017 19.1712 21.6224H19.1248L18.4677 20.7632L18.4775 20.7241C19.3519 20.0943 20.1091 19.3181 20.7515 18.4589L21.665 19.0984V19.096Z" fill="black"/>
<path d="M22.3049 5.80231C22.7739 6.64201 23.1891 7.51101 23.47 8.43371C23.5091 8.56553 23.6483 8.9683 23.6458 9.0757C23.6458 9.09523 23.6532 9.1172 23.6287 9.12208L22.6102 9.38083L22.5467 9.33201C22.2927 8.28725 21.8677 7.29132 21.3181 6.37106L22.3074 5.80231H22.3049Z" fill="black"/>
<path d="M6.35538 2.69L5.80093 1.7014C6.65092 1.23516 7.5229 0.807986 8.45593 0.529711C8.55119 0.500419 9.07144 0.339312 9.12029 0.375927L9.36943 1.44265C8.31182 1.72336 7.29819 2.14322 6.35538 2.69245V2.69Z" fill="black"/>
<path d="M17.6471 21.3052L18.2015 22.2938C17.1512 22.8601 16.0643 23.3898 14.887 23.629L14.6355 22.5525C15.6955 22.2791 16.7043 21.8495 17.6495 21.3027L17.6471 21.3052Z" fill="black"/>
<path d="M1.22857 10.3719L1.11622 11.6632C1.09912 12.3149 1.16507 12.9618 1.23346 13.6062L0.127007 13.799C0.0390773 13.2596 0.0195373 12.7274 0.0122098 12.1831C0.00732479 11.8706 -0.0073302 11.5435 0.0122098 11.2238C0.0317498 10.8796 0.0952548 10.533 0.12945 10.1912L1.23102 10.3694L1.22857 10.3719Z" fill="black"/>
<path d="M13.805 0.129344L13.6267 1.23024L12.2784 1.11551C11.6458 1.10575 11.0181 1.16677 10.3904 1.23512L10.195 0.143991C10.3244 0.117139 10.4612 0.0902883 10.5931 0.0756423C11.658 -0.0512902 12.745 -0.00979304 13.805 0.129344Z" fill="black"/>
<path d="M23.8754 10.1937C23.9047 10.5378 23.9707 10.882 23.9927 11.2262C24.0098 11.5338 23.9951 11.8536 23.9927 12.1562C23.9853 12.7079 23.978 13.2596 23.8632 13.8015L22.7714 13.6086C22.9253 12.5322 22.9082 11.4483 22.7763 10.3719L23.8779 10.1937H23.8754Z" fill="black"/>
<path d="M13.6267 22.7649L13.805 23.8658C13.4606 23.8975 13.1162 23.961 12.7718 23.983C11.9218 24.0318 11.0425 23.9756 10.1974 23.8658L10.3904 22.76L11.724 22.8796C12.3615 22.8943 12.9941 22.8186 13.6267 22.7649Z" fill="black"/>
<path d="M12 21.786C10.0655 21.786 8.26053 21.2246 6.7413 20.2579L2.80154 21.1904L3.73458 17.253C2.76491 15.7347 2.20557 13.9308 2.20557 11.9976C2.20557 6.59072 6.58986 2.20911 12 2.20911C17.4101 2.20911 21.7944 6.59072 21.7944 11.9976C21.7944 17.4044 17.4101 21.786 12 21.786Z" fill="black"/>
</g>
<defs>
<clipPath id="clip0_598_10666">
<rect width="24" height="24" fill="white"/>
</clipPath>
</defs>
</svg>
