<svg width="59" height="59" viewBox="0 0 59 59" fill="none" xmlns="http://www.w3.org/2000/svg">
<g clip-path="url(#clip0_598_10591)">
<path d="M38.0411 30.5348H38.5324C38.6201 30.3596 38.6816 30.1668 38.8219 30.0178C41.3048 27.5463 46.0598 21.1835 48.9638 20.1669C56.3596 17.5815 62.0622 26.2492 57.0001 32.0423C51.4203 37.8879 46.4196 44.3296 40.8573 50.184C36.0408 55.2584 30.6014 58.396 23.4337 58.7991C19.3892 59.027 13.4936 59.0796 9.47546 58.7991C4.69405 58.4661 0.649586 54.7238 0.219698 49.9035C-0.0610458 46.7222 -0.166325 37.2832 0.482895 34.4173C1.34267 30.6225 5.02743 27.3973 8.92275 27.0906C16.5818 26.4858 25.0304 27.555 32.7772 27.0906C34.874 27.4236 37.0322 28.6418 38.0323 30.5348H38.0411ZM36.111 48.1069C42.1821 42.1824 47.525 34.654 53.4995 28.5454C55.2367 25.8899 52.0695 23.2431 49.7534 25.3465C45.8932 29.7636 41.6118 33.8389 38.2692 38.6241C34.3213 44.277 25.8375 42.5417 19.7577 44.1543C17.0906 43.9878 16.3712 40.4909 18.8891 39.4217C23.0477 38.3787 27.908 38.4839 32.0051 37.4936C35.725 36.5908 35.0056 31.902 31.3208 31.8495C24.4514 32.314 16.8187 31.2535 10.0369 31.8582C7.44884 32.0861 5.39591 33.6461 5.1678 36.3367C4.79933 40.6574 5.44855 45.5127 5.19412 49.886C5.60646 51.9456 7.35234 53.6546 9.48423 53.8474C13.2655 54.1892 19.9595 54.1015 23.8109 53.8474C28.373 53.5406 32.9 51.2444 36.1198 48.0981L36.111 48.1069Z" fill="white"/>
<path d="M13.9402 0.202258C19.1779 0.447653 25.0472 -0.30606 30.2146 0.149673C33.1098 0.412597 35.8031 2.52475 36.6015 5.31173C37.1455 7.23108 37.1104 13.4711 36.891 15.6096C36.5138 19.1678 33.5484 21.8671 30.0391 22.1476C25.9245 22.4719 18.3444 22.5069 14.2561 22.1388C11.3609 21.8759 8.66753 19.7638 7.86917 16.9768C7.31645 15.0574 7.35155 8.65086 7.60597 6.52995C8.00076 3.2697 10.6941 0.631699 13.9315 0.211022L13.9402 0.202258ZM14.1069 5.13645C13.0717 5.60095 12.6067 6.26702 12.5014 7.38007C12.3435 9.11536 12.2909 13.5938 12.5278 15.2502C12.7032 16.4684 13.6244 17.0907 14.8 17.1959C19.5639 17.6428 25.0121 16.8453 29.8549 17.1959C31.1709 17.0469 31.8552 16.1968 31.9692 14.9084C32.1359 13.103 32.1623 8.9839 31.9692 7.20478C31.8289 5.98657 30.934 5.11016 29.6794 5.09263L14.1157 5.13645H14.1069Z" fill="white"/>
<path d="M19.2484 7.52806C20.3362 7.32649 23.5472 7.37031 24.7141 7.47548C27.8637 7.77346 28.0304 12.0153 24.6878 12.4097C23.5034 12.5499 19.5817 12.5762 18.6167 12.1029C16.5988 11.1214 17.1252 7.91368 19.2484 7.52806Z" fill="white"/>
</g>
<defs>
<clipPath id="clip0_598_10591">
<rect width="59" height="59" fill="white"/>
</clipPath>
</defs>
</svg>
