<svg width="70" height="40" viewBox="0 0 70 40" fill="none" xmlns="http://www.w3.org/2000/svg">
<rect x="1" y="1" width="68" height="38" rx="19" stroke="black" stroke-width="2"/>
<path d="M50.9983 31.9989C54.1798 31.9955 57.2301 30.7301 59.4798 28.4804C61.7295 26.2307 62.9949 23.1805 62.9983 19.9989C63.1513 11.0429 52.9673 5.01392 45.2073 9.50792L43.6543 10.3699L45.1973 11.2499C51.8973 14.9379 51.4073 25.1199 44.3973 28.1559L42.7763 28.8869L44.2433 29.8929C46.2299 31.2624 48.5854 31.9967 50.9983 31.9989ZM50.9983 9.99892C53.6496 10.0018 56.1914 11.0563 58.0661 12.9311C59.9409 14.8058 60.9954 17.3476 60.9983 19.9989C61.1533 27.1159 53.2353 32.1989 46.8433 29.0809C48.3398 28.0766 49.5803 26.7359 50.4656 25.1661C51.3509 23.5963 51.8563 21.841 51.9415 20.0408C52.0266 18.2406 51.6891 16.4455 50.9559 14.7991C50.2227 13.1528 49.1143 11.701 47.7193 10.5599C48.7721 10.1864 49.8812 9.9966 50.9983 9.99892Z" fill="black"/>
<circle cx="20" cy="20" r="11" stroke="black" stroke-width="2"/>
<circle cx="20" cy="20" r="14" fill="black"/>
</svg>
