<svg width="23" height="24" viewBox="0 0 23 24" fill="none" xmlns="http://www.w3.org/2000/svg">
<g clip-path="url(#clip0_598_10668)">
<path d="M5.5362 20.3312C2.64117 19.6306 0.925139 17.2823 0.356384 14.4508C-0.361272 10.8698 -0.224576 4.50367 2.94629 2.07242C6.63466 -0.756709 17.1261 -0.781119 20.5118 2.55818C23.4239 5.43125 23.4434 13.9675 21.5004 17.3214C19.2889 21.1367 13.5525 21.2758 9.6493 21.0708C8.8633 21.5858 7.45728 23.8877 6.59316 23.9902C5.02848 24.1782 5.68755 21.227 5.5362 20.3312ZM5.36289 2.79252C5.13832 2.89504 5.0358 2.93654 4.81122 3.06835C2.45809 4.43776 1.91375 6.83483 1.77949 9.44427C1.62083 12.5102 1.68673 16.074 4.44507 17.939C4.5476 18.0073 4.59886 18.0488 4.72091 18.1221C4.75752 18.144 4.8039 18.2588 4.92839 18.3247C5.28478 18.5102 5.78763 18.681 6.18063 18.7738C6.31489 18.9276 6.1074 22.2718 6.18551 22.8527C6.31489 23.8218 7.2205 22.594 7.52807 22.2547C8.23352 21.4784 8.94141 20.5655 9.6371 19.7771C9.76403 19.633 9.81529 19.4231 9.95443 19.3133H10.5061C11.0407 19.4133 11.4288 19.4109 11.9756 19.406C12.1294 19.406 12.2832 19.4133 12.4345 19.406C12.7762 19.3914 13.1058 19.3474 13.4451 19.3133C13.5061 19.3084 13.5696 19.3206 13.6281 19.3133C18.31 18.8007 20.6338 17.4825 20.9707 12.5224C20.978 12.4321 20.9658 12.3393 20.9707 12.2465C21.1245 9.53458 21.3124 7.20098 19.8698 4.72092C19.8405 4.66965 19.8234 4.60863 19.7771 4.53784C18.8812 3.16599 17.7779 2.69976 16.2181 2.2677C13.0277 1.38406 8.3751 1.40358 5.36533 2.79252H5.36289Z" fill="black"/>
<path d="M6.99105 5.01385C7.16924 4.97723 7.3035 4.97967 7.47925 5.03582C7.87713 5.16275 9.33442 7.21076 9.44914 7.65502C9.786 8.94387 8.35801 8.8267 8.3873 9.72011C8.43124 11.1335 11.3165 14.297 12.7958 13.6672C13.4451 13.3914 13.3572 12.1709 14.7583 12.808C15.2197 13.0179 16.5549 13.9797 16.8845 14.3531C17.6436 15.2075 16.0862 16.926 15.2295 17.0212C14.3727 17.1164 12.6835 16.1863 11.9072 15.7494C9.393 14.3361 7.65012 12.5395 6.26119 10.013C5.93653 9.41987 5.15541 7.93818 5.0895 7.32548C4.9943 6.42719 6.17087 5.17739 6.98861 5.01385H6.99105Z" fill="black"/>
<path d="M11.0675 4.88933L10.9675 4.50121L11.1139 4.36695C14.3897 4.17167 16.9967 6.42228 17.4679 9.64197C17.5191 9.9886 17.7437 11.1481 17.2506 11.1481C16.8259 11.1481 16.8845 9.86655 16.8137 9.47354C16.2889 6.58339 13.9504 4.90398 11.07 4.89177L11.0675 4.88933Z" fill="black"/>
<path d="M11.6631 5.92676C14.0944 5.76077 16.3621 8.00406 15.8324 10.4622C15.6981 10.5305 15.5004 10.5427 15.4101 10.4133C15.2929 10.2425 15.2368 9.1196 15.0952 8.70951C14.8194 7.9113 13.9992 7.12041 13.2278 6.81529C12.8153 6.65174 11.812 6.56386 11.6583 6.45646C11.5338 6.37102 11.4923 6.29779 11.5069 6.14401L11.6656 5.92676H11.6631Z" fill="black"/>
<path d="M12.3051 7.49881C13.3767 7.38164 14.6583 8.72419 14.3385 9.79336C14.2848 9.97155 14.1115 10.1156 13.9382 9.9569C13.7356 9.76895 13.76 9.30027 13.6672 9.03176C13.3084 7.99677 12.1709 8.2482 12.0098 8.02851C11.878 7.76976 12.0317 7.5281 12.3027 7.49881H12.3051Z" fill="black"/>
</g>
<defs>
<clipPath id="clip0_598_10668">
<rect width="22.8454" height="24" fill="white"/>
</clipPath>
</defs>
</svg>
