<svg width="24" height="24" viewBox="0 0 24 24" fill="none" xmlns="http://www.w3.org/2000/svg">
<g clip-path="url(#clip0_598_10664)">
<path fill-rule="evenodd" clip-rule="evenodd" d="M20.5053 3.48793C18.248 1.23903 15.2467 0 12.0506 0C5.46352 0 0.103754 5.33389 0.101223 11.8917C0.101223 13.987 0.650359 16.0344 1.69802 17.8376L0 24L6.33404 22.3454C8.08014 23.2923 10.0439 23.7935 12.0455 23.7935H12.0506C18.6352 23.7935 23.9975 18.4596 24 11.9018C24 8.72361 22.76 5.73683 20.5053 3.48793ZM12.0506 21.7838H12.0455C10.264 21.7838 8.51539 21.3079 6.98946 20.4063L6.62758 20.1922L2.86968 21.1744L3.87431 17.5253L3.63897 17.1501C2.64445 15.5761 2.12062 13.7578 2.12062 11.8892C2.12062 6.43945 6.5795 2.00462 12.0582 2.00462C14.7102 2.00462 17.2054 3.03463 19.0806 4.90325C20.9557 6.77188 21.9882 9.25498 21.9857 11.8967C21.9831 17.349 17.5268 21.7813 12.0531 21.7813L12.0506 21.7838ZM17.4989 14.3824C17.2003 14.2338 15.7326 13.5135 15.4593 13.4153C15.186 13.3171 14.9861 13.2667 14.7862 13.5639C14.5863 13.8611 14.0143 14.531 13.8397 14.7299C13.6651 14.9289 13.4905 14.954 13.1919 14.8029C12.8933 14.6544 11.9317 14.3421 10.7904 13.3272C9.90215 12.5389 9.3024 11.5668 9.13033 11.2672C8.95825 10.9675 9.11261 10.8088 9.26191 10.6602C9.39604 10.5268 9.56052 10.3127 9.70983 10.1389C9.86166 9.96768 9.90974 9.84176 10.011 9.64281C10.1097 9.44386 10.0616 9.27009 9.98566 9.12151C9.90974 8.97293 9.31253 7.50976 9.06453 6.91542C8.82159 6.3362 8.57613 6.41427 8.3914 6.4042C8.21679 6.39412 8.0194 6.39412 7.81949 6.39412C7.61957 6.39412 7.29819 6.46716 7.02488 6.76684C6.75158 7.06401 5.97975 7.78426 5.97975 9.24491C5.97975 10.7056 7.05019 12.1209 7.19949 12.3198C7.3488 12.5188 9.30493 15.5207 12.3011 16.8076C13.0148 17.1148 13.5715 17.2961 14.0042 17.4346C14.7204 17.6613 15.3707 17.6285 15.8844 17.553C16.4589 17.4674 17.6508 16.8353 17.9013 16.1402C18.1518 15.4451 18.1493 14.8508 18.0759 14.7274C18.0025 14.6015 17.8026 14.5284 17.504 14.3799L17.4989 14.3824Z" fill="black"/>
</g>
<defs>
<clipPath id="clip0_598_10664">
<rect width="24" height="24" fill="white"/>
</clipPath>
</defs>
</svg>
